<svg xmlns="http://www.w3.org/2000/svg" xmlns:xlink="http://www.w3.org/1999/xlink" contentStyleType="text/css" data-diagram-type="DESCRIPTION" height="934px" preserveAspectRatio="none" style="width:2040px;height:934px;background:#FFFFFF;" version="1.1" viewBox="0 0 2040 934" width="2040px" zoomAndPan="magnify"><title>MCP Server Code Structure</title><defs/><g><g class="title" data-source-line="2"><text fill="#000000" font-family="Verdana" font-size="22" font-weight="bold" lengthAdjust="spacing" textLength="333.9316" x="848.7732" y="37.1182">MCP Server Code Structure</text></g><!--cluster plan.mcp-server--><g class="cluster" data-entity="plan.mcp-server" data-source-line="4" data-uid="ent0002" id="cluster_plan.mcp-server"><path d="M13.5,58.7373 L142.9336,58.7373 A3.75,3.75 0 0 1 145.4336,61.2373 L152.4336,81.752 L1376.5,81.752 A2.5,2.5 0 0 1 1379,84.252 L1379,792.8373 A2.5,2.5 0 0 1 1376.5,795.3373 L13.5,795.3373 A2.5,2.5 0 0 1 11,792.8373 L11,61.2373 A2.5,2.5 0 0 1 13.5,58.7373" fill="#FFFFFF" style="stroke:#000000;stroke-width:1;"/><line style="stroke:#000000;stroke-width:1;" x1="11" x2="152.4336" y1="81.752" y2="81.752"/><text fill="#000000" font-family="Verdana" font-size="14" font-weight="bold" lengthAdjust="spacing" textLength="128.4336" x="15" y="74.8125">plan.mcp-server</text></g><!--cluster Tool Definitions--><g class="cluster" data-entity="Tool Definitions" data-source-line="8" data-uid="ent0005" id="cluster_Tool Definitions"><path d="M1037.5,328.7673 L1162.2646,328.7673 A3.75,3.75 0 0 1 1164.7646,331.2673 L1171.7646,351.782 L1343.5,351.782 A2.5,2.5 0 0 1 1346,354.282 L1346,442.2973 A2.5,2.5 0 0 1 1343.5,444.7973 L1037.5,444.7973 A2.5,2.5 0 0 1 1035,442.2973 L1035,331.2673 A2.5,2.5 0 0 1 1037.5,328.7673" fill="#FFFFFF" style="stroke:#000000;stroke-width:1;"/><line style="stroke:#000000;stroke-width:1;" x1="1035" x2="1171.7646" y1="351.782" y2="351.782"/><text fill="#000000" font-family="Verdana" font-size="14" font-weight="bold" lengthAdjust="spacing" textLength="123.7646" x="1039" y="344.8425">Tool Definitions</text></g><!--cluster Internal Functions--><g class="cluster" data-entity="Internal Functions" data-source-line="13" data-uid="ent0008" id="cluster_Internal Functions"><path d="M165.5,493.7973 L311.9893,493.7973 A3.75,3.75 0 0 1 314.4893,496.2973 L321.4893,516.812 L1352.5,516.812 A2.5,2.5 0 0 1 1355,519.312 L1355,768.8373 A2.5,2.5 0 0 1 1352.5,771.3373 L165.5,771.3373 A2.5,2.5 0 0 1 163,768.8373 L163,496.2973 A2.5,2.5 0 0 1 165.5,493.7973" fill="#FFFFFF" style="stroke:#000000;stroke-width:1;"/><line style="stroke:#000000;stroke-width:1;" x1="163" x2="321.4893" y1="516.812" y2="516.812"/><text fill="#000000" font-family="Verdana" font-size="14" font-weight="bold" lengthAdjust="spacing" textLength="145.4893" x="167" y="509.8725">Internal Functions</text></g><!--cluster Handlers--><g class="cluster" data-entity="Handlers" data-source-line="17" data-uid="ent0011" id="cluster_Handlers"><path d="M354.5,648.3173 L425.6846,648.3173 A3.75,3.75 0 0 1 428.1846,650.8173 L435.1846,671.332 L1328.5,671.332 A2.5,2.5 0 0 1 1331,673.832 L1331,744.8373 A2.5,2.5 0 0 1 1328.5,747.3373 L354.5,747.3373 A2.5,2.5 0 0 1 352,744.8373 L352,650.8173 A2.5,2.5 0 0 1 354.5,648.3173" fill="#FFFFFF" style="stroke:#000000;stroke-width:1;"/><line style="stroke:#000000;stroke-width:1;" x1="352" x2="435.1846" y1="671.332" y2="671.332"/><text fill="#000000" font-family="Verdana" font-size="14" font-weight="bold" lengthAdjust="spacing" textLength="70.1846" x="356" y="664.3925">Handlers</text></g><!--cluster External Dependencies--><g class="cluster" data-entity="External Dependencies" data-source-line="29" data-uid="ent0018" id="cluster_External Dependencies"><path d="M1010.5,828.3373 L1191.6201,828.3373 A3.75,3.75 0 0 1 1194.1201,830.8373 L1201.1201,851.352 L1667.5,851.352 A2.5,2.5 0 0 1 1670,853.852 L1670,924.8473 A2.5,2.5 0 0 1 1667.5,927.3473 L1010.5,927.3473 A2.5,2.5 0 0 1 1008,924.8473 L1008,830.8373 A2.5,2.5 0 0 1 1010.5,828.3373" fill="#FFFFFF" style="stroke:#000000;stroke-width:1;"/><line style="stroke:#000000;stroke-width:1;" x1="1008" x2="1201.1201" y1="851.352" y2="851.352"/><text fill="#000000" font-family="Verdana" font-size="14" font-weight="bold" lengthAdjust="spacing" textLength="180.1201" x="1012" y="844.4125">External Dependencies</text></g><!--entity MakeTools--><g class="entity" data-entity="MakeTools" data-source-line="5" data-uid="ent0003" id="entity_MakeTools"><rect fill="#FFFFFF" height="47.0146" rx="2.5" ry="2.5" style="stroke:#000000;stroke-width:1;" width="118.6543" x="1223.67" y="218.7473"/><rect fill="#FFFFFF" height="10" style="stroke:#000000;stroke-width:1;" width="15" x="1322.3243" y="223.7473"/><rect fill="#FFFFFF" height="2" style="stroke:#000000;stroke-width:1;" width="4" x="1320.3243" y="225.7473"/><rect fill="#FFFFFF" height="2" style="stroke:#000000;stroke-width:1;" width="4" x="1320.3243" y="229.7473"/><text fill="#000000" font-family="Verdana" font-size="14" lengthAdjust="spacing" textLength="78.6543" x="1238.67" y="252.8225">make-tools</text></g><!--entity StartServer--><g class="entity" data-entity="StartServer" data-source-line="6" data-uid="ent0004" id="entity_StartServer"><rect fill="#FFFFFF" height="47.0146" rx="2.5" ry="2.5" style="stroke:#000000;stroke-width:1;" width="159.2666" x="1203.37" y="94.7373"/><rect fill="#FFFFFF" height="10" style="stroke:#000000;stroke-width:1;" width="15" x="1342.6366" y="99.7373"/><rect fill="#FFFFFF" height="2" style="stroke:#000000;stroke-width:1;" width="4" x="1340.6366" y="101.7373"/><rect fill="#FFFFFF" height="2" style="stroke:#000000;stroke-width:1;" width="4" x="1340.6366" y="105.7373"/><text fill="#000000" font-family="Verdana" font-size="14" lengthAdjust="spacing" textLength="119.2666" x="1218.37" y="128.8125">start-mcp-server</text></g><!--entity CapDoc--><g class="entity" data-entity="CapDoc" data-source-line="26" data-uid="ent0017" id="entity_CapDoc"><rect fill="#FFB6C1" height="64.0293" rx="2.5" ry="2.5" style="stroke:#000000;stroke-width:1;" width="120.5547" x="26.72" y="521.2873"/><rect fill="#FFB6C1" height="10" style="stroke:#000000;stroke-width:1;" width="15" x="127.2747" y="526.2873"/><rect fill="#FFB6C1" height="2" style="stroke:#000000;stroke-width:1;" width="4" x="125.2747" y="528.2873"/><rect fill="#FFB6C1" height="2" style="stroke:#000000;stroke-width:1;" width="4" x="125.2747" y="532.2873"/><text fill="#000000" font-family="Verdana" font-size="14" lengthAdjust="spacing" textLength="80.5547" x="41.72" y="555.3625">Capabilities</text><text fill="#000000" font-family="Verdana" font-size="14" lengthAdjust="spacing" textLength="71.7705" x="41.72" y="572.3771">Document</text></g><!--entity CapTool--><g class="entity" data-entity="CapTool" data-source-line="9" data-uid="ent0006" id="entity_CapTool"><rect fill="#FFFFFF" height="64.0293" rx="2.5" ry="2.5" style="stroke:#000000;stroke-width:1;" width="149.5527" x="1051.22" y="364.7673"/><rect fill="#FFFFFF" height="10" style="stroke:#000000;stroke-width:1;" width="15" x="1180.7727" y="369.7673"/><rect fill="#FFFFFF" height="2" style="stroke:#000000;stroke-width:1;" width="4" x="1178.7727" y="371.7673"/><rect fill="#FFFFFF" height="2" style="stroke:#000000;stroke-width:1;" width="4" x="1178.7727" y="375.7673"/><text fill="#000000" font-family="Verdana" font-size="14" lengthAdjust="spacing" textLength="109.5527" x="1066.22" y="398.8425">get_capabilities</text><text fill="#000000" font-family="Verdana" font-size="14" lengthAdjust="spacing" textLength="45.0557" x="1066.22" y="415.8571">tool fn</text></g><!--entity ExecTool--><g class="entity" data-entity="ExecTool" data-source-line="10" data-uid="ent0007" id="entity_ExecTool"><rect fill="#FFFFFF" height="64.0293" rx="2.5" ry="2.5" style="stroke:#000000;stroke-width:1;" width="94.9746" x="1235.51" y="364.7673"/><rect fill="#FFFFFF" height="10" style="stroke:#000000;stroke-width:1;" width="15" x="1310.4846" y="369.7673"/><rect fill="#FFFFFF" height="2" style="stroke:#000000;stroke-width:1;" width="4" x="1308.4846" y="371.7673"/><rect fill="#FFFFFF" height="2" style="stroke:#000000;stroke-width:1;" width="4" x="1308.4846" y="375.7673"/><text fill="#000000" font-family="Verdana" font-size="14" lengthAdjust="spacing" textLength="54.9746" x="1250.51" y="398.8425">execute</text><text fill="#000000" font-family="Verdana" font-size="14" lengthAdjust="spacing" textLength="45.0557" x="1250.51" y="415.8571">tool fn</text></g><!--entity Router--><g class="entity" data-entity="Router" data-source-line="14" data-uid="ent0009" id="entity_Router"><rect fill="#FFFFFF" height="47.0146" rx="2.5" ry="2.5" style="stroke:#000000;stroke-width:1;" width="167.9893" x="848.01" y="529.7973"/><rect fill="#FFFFFF" height="10" style="stroke:#000000;stroke-width:1;" width="15" x="995.9993" y="534.7973"/><rect fill="#FFFFFF" height="2" style="stroke:#000000;stroke-width:1;" width="4" x="993.9993" y="536.7973"/><rect fill="#FFFFFF" height="2" style="stroke:#000000;stroke-width:1;" width="4" x="993.9993" y="540.7973"/><text fill="#000000" font-family="Verdana" font-size="14" lengthAdjust="spacing" textLength="127.9893" x="863.01" y="563.8725">execute-operation</text></g><!--entity Validator--><g class="entity" data-entity="Validator" data-source-line="15" data-uid="ent0010" id="entity_Validator"><rect fill="#FFFFFF" height="47.0146" rx="2.5" ry="2.5" style="stroke:#000000;stroke-width:1;" width="154.1465" x="178.93" y="684.3173"/><rect fill="#FFFFFF" height="10" style="stroke:#000000;stroke-width:1;" width="15" x="313.0765" y="689.3173"/><rect fill="#FFFFFF" height="2" style="stroke:#000000;stroke-width:1;" width="4" x="311.0765" y="691.3173"/><rect fill="#FFFFFF" height="2" style="stroke:#000000;stroke-width:1;" width="4" x="311.0765" y="695.3173"/><text fill="#000000" font-family="Verdana" font-size="14" lengthAdjust="spacing" textLength="114.1465" x="193.93" y="718.3925">validate-params</text></g><!--entity ListHandler--><g class="entity" data-entity="ListHandler" data-source-line="18" data-uid="ent0012" id="entity_ListHandler"><rect fill="#FFFFFF" height="47.0146" rx="2.5" ry="2.5" style="stroke:#000000;stroke-width:1;" width="146.3809" x="367.81" y="684.3173"/><rect fill="#FFFFFF" height="10" style="stroke:#000000;stroke-width:1;" width="15" x="494.1909" y="689.3173"/><rect fill="#FFFFFF" height="2" style="stroke:#000000;stroke-width:1;" width="4" x="492.1909" y="691.3173"/><rect fill="#FFFFFF" height="2" style="stroke:#000000;stroke-width:1;" width="4" x="492.1909" y="695.3173"/><text fill="#000000" font-family="Verdana" font-size="14" lengthAdjust="spacing" textLength="106.3809" x="382.81" y="718.3925">handle-fact-list</text></g><!--entity GetHandler--><g class="entity" data-entity="GetHandler" data-source-line="19" data-uid="ent0013" id="entity_GetHandler"><rect fill="#FFFFFF" height="47.0146" rx="2.5" ry="2.5" style="stroke:#000000;stroke-width:1;" width="148.4658" x="548.77" y="684.3173"/><rect fill="#FFFFFF" height="10" style="stroke:#000000;stroke-width:1;" width="15" x="677.2358" y="689.3173"/><rect fill="#FFFFFF" height="2" style="stroke:#000000;stroke-width:1;" width="4" x="675.2358" y="691.3173"/><rect fill="#FFFFFF" height="2" style="stroke:#000000;stroke-width:1;" width="4" x="675.2358" y="695.3173"/><text fill="#000000" font-family="Verdana" font-size="14" lengthAdjust="spacing" textLength="108.4658" x="563.77" y="718.3925">handle-fact-get</text></g><!--entity CreateHandler--><g class="entity" data-entity="CreateHandler" data-source-line="20" data-uid="ent0014" id="entity_CreateHandler"><rect fill="#FFFFFF" height="47.0146" rx="2.5" ry="2.5" style="stroke:#000000;stroke-width:1;" width="169.7598" x="732.12" y="684.3173"/><rect fill="#FFFFFF" height="10" style="stroke:#000000;stroke-width:1;" width="15" x="881.8798" y="689.3173"/><rect fill="#FFFFFF" height="2" style="stroke:#000000;stroke-width:1;" width="4" x="879.8798" y="691.3173"/><rect fill="#FFFFFF" height="2" style="stroke:#000000;stroke-width:1;" width="4" x="879.8798" y="695.3173"/><text fill="#000000" font-family="Verdana" font-size="14" lengthAdjust="spacing" textLength="129.7598" x="747.12" y="718.3925">handle-fact-create</text></g><!--entity UpdateHandler--><g class="entity" data-entity="UpdateHandler" data-source-line="21" data-uid="ent0015" id="entity_UpdateHandler"><rect fill="#FFFFFF" height="47.0146" rx="2.5" ry="2.5" style="stroke:#000000;stroke-width:1;" width="174.4561" x="936.77" y="684.3173"/><rect fill="#FFFFFF" height="10" style="stroke:#000000;stroke-width:1;" width="15" x="1091.2261" y="689.3173"/><rect fill="#FFFFFF" height="2" style="stroke:#000000;stroke-width:1;" width="4" x="1089.2261" y="691.3173"/><rect fill="#FFFFFF" height="2" style="stroke:#000000;stroke-width:1;" width="4" x="1089.2261" y="695.3173"/><text fill="#000000" font-family="Verdana" font-size="14" lengthAdjust="spacing" textLength="134.4561" x="951.77" y="718.3925">handle-fact-update</text></g><!--entity DeleteHandler--><g class="entity" data-entity="DeleteHandler" data-source-line="22" data-uid="ent0016" id="entity_DeleteHandler"><rect fill="#FFFFFF" height="47.0146" rx="2.5" ry="2.5" style="stroke:#000000;stroke-width:1;" width="168.9873" x="1146.51" y="684.3173"/><rect fill="#FFFFFF" height="10" style="stroke:#000000;stroke-width:1;" width="15" x="1295.4973" y="689.3173"/><rect fill="#FFFFFF" height="2" style="stroke:#000000;stroke-width:1;" width="4" x="1293.4973" y="691.3173"/><rect fill="#FFFFFF" height="2" style="stroke:#000000;stroke-width:1;" width="4" x="1293.4973" y="695.3173"/><text fill="#000000" font-family="Verdana" font-size="14" lengthAdjust="spacing" textLength="128.9873" x="1161.51" y="718.3925">handle-fact-delete</text></g><!--entity MCPCore--><g class="entity" data-entity="MCPCore" data-source-line="30" data-uid="ent0019" id="entity_MCPCore"><rect fill="#FFFFFF" height="47.0146" rx="2.5" ry="2.5" style="stroke:#000000;stroke-width:1;" width="158.8154" x="1342.59" y="864.3373"/><rect fill="#FFFFFF" height="10" style="stroke:#000000;stroke-width:1;" width="15" x="1481.4054" y="869.3373"/><rect fill="#FFFFFF" height="2" style="stroke:#000000;stroke-width:1;" width="4" x="1479.4054" y="871.3373"/><rect fill="#FFFFFF" height="2" style="stroke:#000000;stroke-width:1;" width="4" x="1479.4054" y="875.3373"/><text fill="#000000" font-family="Verdana" font-size="14" lengthAdjust="spacing" textLength="118.8154" x="1357.59" y="898.4125">clojure-mcp.core</text></g><!--entity DB--><g class="entity" data-entity="DB" data-source-line="31" data-uid="ent0020" id="entity_DB"><rect fill="#FFFFFF" height="47.0146" rx="2.5" ry="2.5" style="stroke:#000000;stroke-width:1;" width="92.3701" x="1214.81" y="864.3373"/><rect fill="#FFFFFF" height="10" style="stroke:#000000;stroke-width:1;" width="15" x="1287.1801" y="869.3373"/><rect fill="#FFFFFF" height="2" style="stroke:#000000;stroke-width:1;" width="4" x="1285.1801" y="871.3373"/><rect fill="#FFFFFF" height="2" style="stroke:#000000;stroke-width:1;" width="4" x="1285.1801" y="875.3373"/><text fill="#000000" font-family="Verdana" font-size="14" lengthAdjust="spacing" textLength="52.3701" x="1229.81" y="898.4125">plan.db</text></g><!--entity FactModel--><g class="entity" data-entity="FactModel" data-source-line="32" data-uid="ent0021" id="entity_FactModel"><rect fill="#FFFFFF" height="47.0146" rx="2.5" ry="2.5" style="stroke:#000000;stroke-width:1;" width="156.4707" x="1023.76" y="864.3373"/><rect fill="#FFFFFF" height="10" style="stroke:#000000;stroke-width:1;" width="15" x="1160.2307" y="869.3373"/><rect fill="#FFFFFF" height="2" style="stroke:#000000;stroke-width:1;" width="4" x="1158.2307" y="871.3373"/><rect fill="#FFFFFF" height="2" style="stroke:#000000;stroke-width:1;" width="4" x="1158.2307" y="875.3373"/><text fill="#000000" font-family="Verdana" font-size="14" lengthAdjust="spacing" textLength="116.4707" x="1038.76" y="898.4125">plan.models.fact</text></g><!--entity Config--><g class="entity" data-entity="Config" data-source-line="33" data-uid="ent0022" id="entity_Config"><rect fill="#FFFFFF" height="47.0146" rx="2.5" ry="2.5" style="stroke:#000000;stroke-width:1;" width="117.0615" x="1536.47" y="864.3373"/><rect fill="#FFFFFF" height="10" style="stroke:#000000;stroke-width:1;" width="15" x="1633.5315" y="869.3373"/><rect fill="#FFFFFF" height="2" style="stroke:#000000;stroke-width:1;" width="4" x="1631.5315" y="871.3373"/><rect fill="#FFFFFF" height="2" style="stroke:#000000;stroke-width:1;" width="4" x="1631.5315" y="875.3373"/><text fill="#000000" font-family="Verdana" font-size="14" lengthAdjust="spacing" textLength="77.0615" x="1551.47" y="898.4125">plan.config</text></g><g class="entity" data-entity="GMN42" data-source-line="63" data-uid="ent0043" id="entity_GMN42"><path d="M1840.52,221.4573 L1840.52,238.2573 L1342.72,242.2573 L1840.52,246.2573 L1840.52,263.0559 A0,0 0 0 0 1840.52,263.0559 L2033.478,263.0559 A0,0 0 0 0 2033.478,263.0559 L2033.478,231.4573 L2023.478,221.4573 L1840.52,221.4573 A0,0 0 0 0 1840.52,221.4573" fill="#FFFFFF" style="stroke:#000000;stroke-width:1;"/><path d="M2023.478,221.4573 L2023.478,231.4573 L2033.478,231.4573 L2023.478,221.4573" fill="#FFFFFF" style="stroke:#000000;stroke-width:1;"/><text fill="#000000" font-family="Verdana" font-size="13" lengthAdjust="spacing" textLength="141.2227" x="1846.52" y="239.5271">Public API entry point</text><text fill="#000000" font-family="Verdana" font-size="13" lengthAdjust="spacing" textLength="171.958" x="1846.52" y="255.3264">Creates the two MCP tools</text></g><g class="entity" data-entity="GMN45" data-source-line="68" data-uid="ent0046" id="entity_GMN45"><path d="M1395.36,671.2273 L1395.36,744.4246 L1558.6427,744.4246 L1558.6427,681.2273 L1548.6427,671.2273 L1395.36,671.2273" fill="#FFFFFF" style="stroke:#000000;stroke-width:1;"/><path d="M1548.6427,671.2273 L1548.6427,681.2273 L1558.6427,681.2273 L1548.6427,671.2273" fill="#FFFFFF" style="stroke:#000000;stroke-width:1;"/><text fill="#000000" font-family="Verdana" font-size="13" lengthAdjust="spacing" textLength="119.4248" x="1401.36" y="689.2971">Central dispatcher</text><text fill="#000000" font-family="Verdana" font-size="13" lengthAdjust="spacing" textLength="142.2827" x="1401.36" y="705.0964">Routes to appropriate</text><text fill="#000000" font-family="Verdana" font-size="13" lengthAdjust="spacing" textLength="113.001" x="1401.36" y="720.8958">handler based on</text><text fill="#000000" font-family="Verdana" font-size="13" lengthAdjust="spacing" textLength="102.8892" x="1401.36" y="736.6951">operation name</text></g><!--link MakeTools to CapTool--><g class="link" data-entity-1="MakeTools" data-entity-2="CapTool" data-source-line="36" data-uid="lnk23" id="link_MakeTools_CapTool"><path d="M1257.82,266.0473 C1247.83,275.1873 1236.29,285.8873 1226,295.7673 C1202.44,318.3773 1180.5846,340.2268 1160.9746,360.0968" fill="none" id="MakeTools-to-CapTool" style="stroke:#000000;stroke-width:1;"/><polygon fill="#000000" points="1156.76,364.3673,1165.9289,360.7713,1160.2722,360.8086,1160.2349,355.1518,1156.76,364.3673" style="stroke:#000000;stroke-width:1;"/><text fill="#000000" font-family="Verdana" font-size="13" lengthAdjust="spacing" textLength="47.5122" x="1227" y="309.8371">creates</text></g><!--link MakeTools to ExecTool--><g class="link" data-entity-1="MakeTools" data-entity-2="ExecTool" data-source-line="37" data-uid="lnk24" id="link_MakeTools_ExecTool"><path d="M1283,266.0973 C1283,292.1873 1283,329.0573 1283,358.3073" fill="none" id="MakeTools-to-ExecTool" style="stroke:#000000;stroke-width:1;"/><polygon fill="#000000" points="1283,364.3073,1287,355.3073,1283,359.3073,1279,355.3073,1283,364.3073" style="stroke:#000000;stroke-width:1;"/><text fill="#000000" font-family="Verdana" font-size="13" lengthAdjust="spacing" textLength="47.5122" x="1284" y="309.8371">creates</text></g><!--link StartServer to MakeTools--><g class="link" data-entity-1="StartServer" data-entity-2="MakeTools" data-source-line="39" data-uid="lnk25" id="link_StartServer_MakeTools"><path d="M1283,142.1973 C1283,164.0073 1283,190.6273 1283,212.4173" fill="none" id="StartServer-to-MakeTools" style="stroke:#000000;stroke-width:1;"/><polygon fill="#000000" points="1283,218.4173,1287,209.4173,1283,213.4173,1279,209.4173,1283,218.4173" style="stroke:#000000;stroke-width:1;"/><text fill="#000000" font-family="Verdana" font-size="13" lengthAdjust="spacing" textLength="29.5166" x="1284" y="185.8171">uses</text></g><!--link StartServer to MCPCore--><g class="link" data-entity-1="StartServer" data-entity-2="MCPCore" data-source-line="40" data-uid="lnk26" id="link_StartServer_MCPCore"><path d="M1309.12,142.1973 C1381.07,207.4073 1581.41,402.8473 1651,615.3173 C1671.12,676.7473 1778.71,642.8473 1618,803.3373 C1586.41,834.8773 1560.51,803.9073 1519,820.3373 C1492.8,830.6973 1471.3395,845.4621 1452.8095,860.3321" fill="none" id="StartServer-to-MCPCore" style="stroke:#000000;stroke-width:1;"/><polygon fill="#000000" points="1448.13,864.0873,1457.6528,861.5741,1452.0296,860.9579,1452.6458,855.3347,1448.13,864.0873" style="stroke:#000000;stroke-width:1;"/><text fill="#000000" font-family="Verdana" font-size="13" lengthAdjust="spacing" textLength="82.7671" x="1589.09" y="474.8671">starts server</text></g><!--link CapTool to CapDoc--><g class="link" data-entity-1="CapTool" data-entity-2="CapDoc" data-source-line="42" data-uid="lnk27" id="link_CapTool_CapDoc"><path d="M1050.86,398.6973 C853.13,402.0573 322.61,417.3673 163,485.7973 C144.63,493.6673 131.8134,503.4956 118.5134,516.6656" fill="none" id="CapTool-to-CapDoc" style="stroke:#000000;stroke-width:1;"/><polygon fill="#000000" points="114.25,520.8873,123.4596,517.397,117.8029,517.3692,117.8306,511.7124,114.25,520.8873" style="stroke:#000000;stroke-width:1;"/><text fill="#000000" font-family="Verdana" font-size="13" lengthAdjust="spacing" textLength="47.1885" x="238.96" y="474.8671">returns</text></g><!--link ExecTool to Router--><g class="link" data-entity-1="ExecTool" data-entity-2="Router" data-source-line="44" data-uid="lnk28" id="link_ExecTool_Router"><path d="M1250.7,429.1473 C1240.77,437.6373 1229.43,446.2773 1218,452.7973 C1154.3,489.1473 1080.8803,513.8186 1021.9903,530.2086" fill="none" id="ExecTool-to-Router" style="stroke:#000000;stroke-width:1;"/><polygon fill="#000000" points="1016.21,531.8173,1025.953,533.2577,1021.0269,530.4767,1023.808,525.5506,1016.21,531.8173" style="stroke:#000000;stroke-width:1;"/><text fill="#000000" font-family="Verdana" font-size="13" lengthAdjust="spacing" textLength="68.9863" x="1197.44" y="474.8671">dispatches</text></g><!--link ExecTool to DB--><g class="link" data-entity-1="ExecTool" data-entity-2="DB" data-source-line="45" data-uid="lnk29" id="link_ExecTool_DB"><path d="M1330.96,426.1673 C1441.61,494.9773 1696.4,674.5073 1576,803.3373 C1556.91,823.7573 1350.34,808.5273 1325,820.3373 C1304.67,829.8073 1291.026,844.0043 1279.586,859.2843" fill="none" id="ExecTool-to-DB" style="stroke:#000000;stroke-width:1;"/><polygon fill="#000000" points="1275.99,864.0873,1284.586,859.2801,1278.9866,860.0848,1278.182,854.4855,1275.99,864.0873" style="stroke:#000000;stroke-width:1;"/><text fill="#000000" font-family="Verdana" font-size="13" lengthAdjust="spacing" textLength="70.4399" x="1572.44" y="629.3871">connection</text></g><!--link Router to Validator--><g class="link" data-entity-1="Router" data-entity-2="Validator" data-source-line="47" data-uid="lnk30" id="link_Router_Validator"><path d="M873.43,577.2673 C863.72,580.3973 853.66,583.2473 844,585.3173 C628.86,631.4473 555.07,555.6173 352,640.3173 C326.36,651.0073 305.3517,665.5548 287.0117,680.2548" fill="none" id="Router-to-Validator" style="stroke:#000000;stroke-width:1;"/><polygon fill="#000000" points="282.33,684.0073,291.8543,681.4997,286.2314,680.8802,286.8509,675.2574,282.33,684.0073" style="stroke:#000000;stroke-width:1;"/><text fill="#000000" font-family="Verdana" font-size="13" lengthAdjust="spacing" textLength="58.1826" x="420.99" y="629.3871">validates</text></g><!--link Router to ListHandler--><g class="link" data-entity-1="Router" data-entity-2="ListHandler" data-source-line="48" data-uid="lnk31" id="link_Router_ListHandler"><path d="M870.86,577.3073 C861.92,580.2373 852.78,583.0173 844,585.3173 C707.37,621.1173 660.8,584.6173 531,640.3173 C506.54,650.8173 487.0199,665.2044 469.9499,679.9544" fill="none" id="Router-to-ListHandler" style="stroke:#000000;stroke-width:1;"/><polygon fill="#000000" points="465.41,683.8773,474.8351,681.0196,469.1933,680.6082,469.6046,674.9663,465.41,683.8773" style="stroke:#000000;stroke-width:1;"/><text fill="#000000" font-family="Verdana" font-size="13" lengthAdjust="spacing" textLength="49.207" x="601.28" y="629.3871">fact/list</text></g><!--link Router to GetHandler--><g class="link" data-entity-1="Router" data-entity-2="GetHandler" data-source-line="49" data-uid="lnk32" id="link_Router_GetHandler"><path d="M869.13,577.2373 C815.33,597.2373 742.36,625.3173 715,640.3173 C692.19,652.8273 673.1641,666.4183 655.5141,680.2383" fill="none" id="Router-to-GetHandler" style="stroke:#000000;stroke-width:1;"/><polygon fill="#000000" points="650.79,683.9373,660.3422,681.5382,654.7268,680.8548,655.4102,675.2394,650.79,683.9373" style="stroke:#000000;stroke-width:1;"/><text fill="#000000" font-family="Verdana" font-size="13" lengthAdjust="spacing" textLength="51.1431" x="766.41" y="629.3871">fact/get</text></g><!--link Router to CreateHandler--><g class="link" data-entity-1="Router" data-entity-2="CreateHandler" data-source-line="50" data-uid="lnk33" id="link_Router_CreateHandler"><path d="M914.78,577.1373 C893.1,605.8873 859.6825,650.2167 837.9425,679.0467" fill="none" id="Router-to-CreateHandler" style="stroke:#000000;stroke-width:1;"/><polygon fill="#000000" points="834.33,683.8373,842.9425,679.0597,837.3404,679.8451,836.555,674.2431,834.33,683.8373" style="stroke:#000000;stroke-width:1;"/><text fill="#000000" font-family="Verdana" font-size="13" lengthAdjust="spacing" textLength="70.916" x="885.8" y="629.3871">fact/create</text></g><!--link Router to UpdateHandler--><g class="link" data-entity-1="Router" data-entity-2="UpdateHandler" data-source-line="51" data-uid="lnk34" id="link_Router_UpdateHandler"><path d="M945.77,577.1373 C963.12,605.8873 989.641,649.8696 1007.031,678.6996" fill="none" id="Router-to-UpdateHandler" style="stroke:#000000;stroke-width:1;"/><polygon fill="#000000" points="1010.13,683.8373,1008.9066,674.0647,1007.5475,679.5559,1002.0563,678.1968,1010.13,683.8373" style="stroke:#000000;stroke-width:1;"/><text fill="#000000" font-family="Verdana" font-size="13" lengthAdjust="spacing" textLength="75.2769" x="979" y="629.3871">fact/update</text></g><!--link Router to DeleteHandler--><g class="link" data-entity-1="Router" data-entity-2="DeleteHandler" data-source-line="52" data-uid="lnk35" id="link_Router_DeleteHandler"><path d="M991.4,577.2173 C1031.14,593.2873 1084.17,616.1273 1129,640.3173 C1153.19,653.3673 1174.1662,666.9175 1193.8262,680.4375" fill="none" id="Router-to-DeleteHandler" style="stroke:#000000;stroke-width:1;"/><polygon fill="#000000" points="1198.77,683.8373,1193.6208,675.4417,1194.6502,681.0041,1189.0877,682.0335,1198.77,683.8373" style="stroke:#000000;stroke-width:1;"/><text fill="#000000" font-family="Verdana" font-size="13" lengthAdjust="spacing" textLength="70.1987" x="1114.58" y="629.3871">fact/delete</text></g><!--link ListHandler to FactModel--><g class="link" data-entity-1="ListHandler" data-entity-2="FactModel" data-source-line="54" data-uid="lnk36" id="link_ListHandler_FactModel"><path d="M455.89,731.6973 C471.7,753.9173 498.8,786.6673 531,803.3373 C615.31,846.9573 881.696,871.3193 1017.506,881.2593" fill="none" id="ListHandler-to-FactModel" style="stroke:#000000;stroke-width:1;"/><polygon fill="#000000" points="1023.49,881.6973,1014.806,877.051,1018.5033,881.3323,1014.222,885.0297,1023.49,881.6973" style="stroke:#000000;stroke-width:1;"/></g><!--link GetHandler to FactModel--><g class="link" data-entity-1="GetHandler" data-entity-2="FactModel" data-source-line="55" data-uid="lnk37" id="link_GetHandler_FactModel"><path d="M638.9,731.6473 C655.37,753.5073 683.15,785.6973 715,803.3373 C812.56,857.3573 935.9303,875.9544 1017.5803,882.6844" fill="none" id="GetHandler-to-FactModel" style="stroke:#000000;stroke-width:1;"/><polygon fill="#000000" points="1023.56,883.1773,1014.919,878.4515,1018.5769,882.7666,1014.2618,886.4245,1023.56,883.1773" style="stroke:#000000;stroke-width:1;"/></g><!--link CreateHandler to FactModel--><g class="link" data-entity-1="CreateHandler" data-entity-2="FactModel" data-source-line="56" data-uid="lnk38" id="link_CreateHandler_FactModel"><path d="M837.56,731.6573 C857.04,752.3173 887.86,782.5873 919,803.3373 C956.35,828.2173 996.7435,846.9182 1033.2635,861.6082" fill="none" id="CreateHandler-to-FactModel" style="stroke:#000000;stroke-width:1;"/><polygon fill="#000000" points="1038.83,863.8473,1031.9729,856.7776,1034.1912,861.9814,1028.9874,864.1997,1038.83,863.8473" style="stroke:#000000;stroke-width:1;"/></g><!--link UpdateHandler to FactModel--><g class="link" data-entity-1="UpdateHandler" data-entity-2="FactModel" data-source-line="57" data-uid="lnk39" id="link_UpdateHandler_FactModel"><path d="M1034.04,731.7373 C1049.01,765.9173 1074.6426,824.3914 1089.5926,858.5214" fill="none" id="UpdateHandler-to-FactModel" style="stroke:#000000;stroke-width:1;"/><polygon fill="#000000" points="1092,864.0173,1092.0529,854.1686,1089.9939,859.4374,1084.725,857.3784,1092,864.0173" style="stroke:#000000;stroke-width:1;"/></g><!--link DeleteHandler to FactModel--><g class="link" data-entity-1="DeleteHandler" data-entity-2="FactModel" data-source-line="58" data-uid="lnk40" id="link_DeleteHandler_FactModel"><path d="M1214.4,731.7373 C1189.63,765.9173 1146.7905,825.0287 1122.0605,859.1587" fill="none" id="DeleteHandler-to-FactModel" style="stroke:#000000;stroke-width:1;"/><polygon fill="#000000" points="1118.54,864.0173,1127.0598,859.0763,1121.4737,859.9684,1120.5816,854.3824,1118.54,864.0173" style="stroke:#000000;stroke-width:1;"/></g><!--link StartServer to Config--><g class="link" data-entity-1="StartServer" data-entity-2="Config" data-source-line="60" data-uid="lnk41" id="link_StartServer_Config"><path d="M1363.02,122.1273 C1505.42,129.4673 1788,154.8973 1788,241.2573 C1788,241.2573 1788,241.2573 1788,708.8273 C1788,784.0373 1713.2199,833.6317 1656.2199,861.2417" fill="none" id="StartServer-to-Config" style="stroke:#000000;stroke-width:1;"/><polygon fill="#000000" points="1650.82,863.8573,1660.6635,863.5338,1655.3199,861.6776,1657.1761,856.334,1650.82,863.8573" style="stroke:#000000;stroke-width:1;"/><text fill="#000000" font-family="Verdana" font-size="13" lengthAdjust="spacing" textLength="91.9712" x="1789" y="474.8671">reads settings</text></g><!--link Router to GMN45--><g class="link" data-entity-1="Router" data-entity-2="GMN45" data-source-line="68" data-uid="lnk47" id="link_Router_GMN45"><path d="M1016.31,567.0573 C1098.04,580.6773 1224.89,605.1673 1331,640.3173 C1356.12,648.6373 1382.7,659.9473 1406.2,670.8673" fill="none" id="Router-GMN45" style="stroke:#000000;stroke-width:1;stroke-dasharray:7,7;"/></g><!--SRC=[XLLDRnCn4BtxLmpblE6U0n9DMgZKI141BWKXnpj9J7Pjo_QM8fJ_pjZU3pifIWxHhD-RZvrvuttZ3zWYc8PBnRpq3S9giOODscUqiD0rmiRRJlZE8cE6YoFV8zmGNyrQOIeNYJVmbm7zdbf-nCfhtRWVm1siwF5BU4geyzpwQdABd4quJFaYA_wDYO8tB74dbVHIApTaYl7sw7yARlXMDeIY-wv2QjYf67Z1JV2UwFY2elDOikxeSAITNgdWGNcqYZTmtobnMKCVjD86BGzmZFfPqvcTMC-yaJKdck6MjwavtzAPdcYZCIR_n5NTe2rIne2725GxBdpLIETZn4SoUe__iwbfaVmHhtE5HIewTJEQLpqwKmyUNwDvrQF61dkFPJJFFKxdetbQ53DVQj6rgFmmT7g6juzoV_1hgOxibCdsxgMVvH8DgXgLe0YZU4MZVv7CWq1dGjjK4st3Wkp4YBAljwdOs-oifKLft2oyK0JloLY5iumZjDh9VQeocg6qSKEWgjuFaeKvfCwxCtmGQqPWsVv4pkGnXyuHuuAGteZWk8yEqZ8oDcJlAmbzd8D5Mdr5USRS0Kxw9hYMpd0l3fId82nlGurQAOmxmrZl4R1H-4GP5iFbX4p7H0bDVHSqdbCczGuCqdLEAFGwS5BJSbeXqe6MH9pJ2cKEjAHSnl9o0taQVbPb2PJLbLXPKecLTPJOnQ2Jok8CUHt6xBrKUngbqXx1XWq1lIikwNMtRQI03-i7e8soVy1egJm1gM07zBa0_rl7ZqIyvndj4OI0VTYjzbwt8Uvu1ov2A5gwKIlXCA8KJmCtncfZPMWvmA5_jortM0Cf1s2yMa7n5gU4_m00]--></g></svg>